<?xml version="1.0" encoding="UTF-8"?><svg id="Layer_2" xmlns="http://www.w3.org/2000/svg" viewBox="0 0 159.6 170.72"><defs><style>.cls-1{fill:#211206;}.cls-1,.cls-2,.cls-3{stroke-width:0px;}.cls-2{fill:#ef2626;}.cls-3{fill:#fff;}</style></defs><g id="Layer_1-2"><path class="cls-2" d="m153.95,27.85c-1.8,0-3.53-.99-4.39-2.71-2.6-5.22-6.73-9.43-11.93-12.15-5.2-2.73-11-3.73-16.78-2.9-2.67.38-5.16-1.47-5.54-4.15-.38-2.68,1.47-5.16,4.15-5.54,7.82-1.12,15.68.23,22.72,3.92,7.04,3.69,12.62,9.38,16.14,16.46,1.21,2.42.22,5.36-2.2,6.56-.7.35-1.45.52-2.18.52Z"/><path class="cls-2" d="m5.66,27.85c-.73,0-1.48-.17-2.18-.52-2.42-1.21-3.4-4.14-2.2-6.56C4.8,13.69,10.39,8,17.42,4.31,24.46.62,32.31-.74,40.14.38c2.68.38,4.53,2.86,4.15,5.54-.38,2.68-2.86,4.54-5.54,4.15-5.77-.83-11.58.18-16.78,2.9-5.2,2.73-9.33,6.93-11.93,12.15-.86,1.72-2.59,2.71-4.39,2.71Z"/><path class="cls-3" d="m147.37,86.22c0,8.84-4.04,16.73-10.37,21.94-2.66-2.19-5.74-3.9-9.08-5.01-2.8-.93-5.79-1.43-8.9-1.43s-6.11.5-8.91,1.43c-3.35,1.1-6.42,2.82-9.08,5.01-6.34-5.21-10.37-13.1-10.37-21.94,0-15.66,12.7-28.36,28.37-28.36s28.36,12.7,28.36,28.36Z"/><path class="cls-1" d="m135.86,88.23c0,6.46-3.66,12.09-9.01,14.92-2.47-.82-5.1-1.26-7.84-1.26s-5.38.44-7.85,1.26c-5.35-2.83-9.01-8.45-9.01-14.92,0-9.29,7.56-16.85,16.85-16.85s16.86,7.56,16.86,16.85Z"/><path class="cls-3" d="m68.94,86.22c0,8.84-4.04,16.73-10.37,21.94-2.66-2.19-5.74-3.9-9.08-5.01-2.8-.93-5.79-1.43-8.9-1.43s-6.11.5-8.91,1.43c-3.35,1.1-6.42,2.82-9.09,5.01-6.34-5.21-10.37-13.1-10.37-21.94,0-15.66,12.7-28.36,28.37-28.36s28.36,12.7,28.36,28.36Z"/><path class="cls-1" d="m57.44,88.23c0,6.46-3.66,12.09-9.01,14.92-2.47-.82-5.1-1.26-7.84-1.26s-5.38.44-7.85,1.26c-5.35-2.83-9.01-8.45-9.01-14.92,0-9.29,7.56-16.85,16.85-16.85s16.86,7.56,16.86,16.85Z"/><path class="cls-1" d="m79.8,170.72c-16.07,0-30.72-6.05-37.3-15.41-1.56-2.21-1.02-5.26,1.19-6.82,2.21-1.56,5.27-1.02,6.82,1.19,4.74,6.73,16.51,11.26,29.3,11.26s24.57-4.52,29.3-11.26c1.55-2.21,4.61-2.74,6.82-1.19,2.21,1.56,2.74,4.61,1.19,6.82-6.59,9.36-21.23,15.41-37.31,15.41Z"/><circle class="cls-2" cx="14.08" cy="133.51" r="14.08" transform="translate(-50.02 15.55) rotate(-22.5)"/><circle class="cls-2" cx="145.53" cy="133.51" r="14.08" transform="translate(-19.75 241.62) rotate(-75.72)"/></g></svg>