<?xml version="1.0" encoding="UTF-8"?><svg id="Layer_2" xmlns="http://www.w3.org/2000/svg" viewBox="0 0 180.08 145.02"><defs><style>.cls-1{fill:#211206;}.cls-1,.cls-2,.cls-3{stroke-width:0px;}.cls-2{fill:#ef2626;}.cls-3{fill:#fff;}</style></defs><g id="Layer_1-2"><path class="cls-1" d="m105.46,55.28c-15.24,0-27.64-12.4-27.64-27.64S90.22,0,105.46,0s27.64,12.4,27.64,27.64-12.4,27.64-27.64,27.64Z"/><path class="cls-3" d="m128.74,22.93c-6.04,0-10.93-4.89-10.93-10.93,0,6.04-4.89,10.93-10.93,10.93,6.04,0,10.93,4.89,10.93,10.93,0-6.04,4.89-10.93,10.93-10.93Z"/><path class="cls-3" d="m111.11,13.39c-3.12,0-5.64-2.53-5.64-5.64,0,3.12-2.53,5.64-5.64,5.64,3.12,0,5.64,2.53,5.64,5.64,0-3.12,2.53-5.64,5.64-5.64Z"/><circle class="cls-1" cx="27.64" cy="27.64" r="27.64" transform="translate(-7.54 10.61) rotate(-19.17)"/><path class="cls-3" d="m50.91,22.93c-6.04,0-10.93-4.89-10.93-10.93,0,6.04-4.89,10.93-10.93,10.93,6.04,0,10.93,4.89,10.93,10.93,0-6.04,4.89-10.93,10.93-10.93Z"/><path class="cls-3" d="m33.28,13.39c-3.12,0-5.64-2.53-5.64-5.64,0,3.12-2.53,5.64-5.64,5.64,3.12,0,5.64,2.53,5.64,5.64,0-3.12,2.53-5.64,5.64-5.64Z"/><path class="cls-1" d="m61.6,116.54c-2.7,0-4.9-2.19-4.9-4.9s2.19-4.9,4.9-4.9c5.16,0,9.36-4.2,9.36-9.36,0-2.78-1.23-5.4-3.37-7.19-1.11-.93-1.76-2.31-1.76-3.76s.64-2.83,1.76-3.76c2.14-1.79,3.37-4.41,3.37-7.19,0-5.16-4.2-9.36-9.36-9.36-2.7,0-4.9-2.19-4.9-4.9s2.19-4.9,4.9-4.9c10.56,0,19.15,8.59,19.15,19.15,0,3.96-1.22,7.77-3.43,10.94,2.22,3.18,3.43,6.98,3.43,10.94,0,10.56-8.59,19.15-19.15,19.15Z"/><path class="cls-2" d="m179.88,101.66c2.8-27.84-24.18-34.7-38.28-23.31-.57.46-1.42.26-1.73-.4-7.62-16.44-34.86-22.2-44.64,4.01-10.05,26.94,22.98,61.32,29.97,62.94,6.99,1.63,51.81-14.64,54.68-43.25Z"/></g></svg>