<?xml version="1.0" encoding="UTF-8"?><svg id="Layer_2" xmlns="http://www.w3.org/2000/svg" viewBox="0 0 130.73 112.4"><defs><style>.cls-1{fill:#211206;}.cls-1,.cls-2{stroke-width:0px;}.cls-2{fill:#ef2626;}</style></defs><g id="Layer_1-2"><path class="cls-1" d="m125.83,22.73c-1.4,0-2.79-.6-3.76-1.76-4.25-5.1-11.24-11.18-20.41-11.18s-16.16,6.08-20.41,11.18c-1.73,2.08-4.82,2.36-6.9.62-2.08-1.73-2.36-4.82-.62-6.9C81.75,5.08,91.41,0,101.66,0s19.91,5.08,27.93,14.69c1.73,2.08,1.45,5.16-.62,6.9-.92.76-2.03,1.14-3.13,1.14Z"/><path class="cls-2" d="m79.57,112.26c-9.06,1.18-17.37-5.19-18.55-14.24l-2.49-19.05c2.22.21,4.51.32,6.84.32,9.69,0,18.65-1.93,25.88-5.18l2.57,19.6c1.18,9.05-5.19,17.35-14.24,18.55Z"/><path class="cls-1" d="m65.36,84.19c-18.98,0-36.23-7.1-43.95-18.08-1.56-2.21-1.02-5.27,1.19-6.82,2.21-1.55,5.27-1.02,6.82,1.19,5.86,8.33,20.3,13.92,35.94,13.92s30.1-5.59,35.95-13.92c1.55-2.21,4.61-2.74,6.82-1.19,2.21,1.56,2.74,4.61,1.19,6.82-7.72,10.98-24.98,18.08-43.96,18.08Z"/><path class="cls-1" d="m53.24,22.73c-1.4,0-2.79-.6-3.76-1.76-4.25-5.1-11.24-11.18-20.41-11.18s-16.16,6.08-20.41,11.18c-1.73,2.08-4.82,2.36-6.9.62-2.08-1.73-2.36-4.82-.62-6.9C9.15,5.08,18.81,0,29.07,0s19.91,5.08,27.93,14.69c1.73,2.08,1.45,5.16-.62,6.9-.92.76-2.03,1.14-3.13,1.14Z"/></g></svg>