<?xml version="1.0" encoding="UTF-8"?><svg id="Layer_2" xmlns="http://www.w3.org/2000/svg" viewBox="0 0 231.04 185.19"><defs><style>.cls-1{fill:#211206;}.cls-1,.cls-2,.cls-3,.cls-4{stroke-width:0px;}.cls-2{fill:#31cfff;}.cls-3{fill:#ef2626;}.cls-4{fill:#fff;}</style></defs><g id="Layer_1-2"><path class="cls-3" d="m176.02,21.29c-.96-.24-1.86-.78-2.55-1.6-3.75-4.47-8.74-7.6-14.43-9.04-5.69-1.44-11.57-1.06-16.99,1.09-2.51,1-5.36-.23-6.36-2.74-1-2.51.23-5.36,2.74-6.36,7.35-2.92,15.3-3.43,23.01-1.48,7.7,1.95,14.46,6.18,19.54,12.24,1.74,2.07,1.47,5.16-.61,6.9-1.25,1.05-2.88,1.37-4.35.99Z"/><path class="cls-3" d="m55.03,21.29c.96-.24,1.86-.78,2.55-1.6,3.75-4.47,8.74-7.6,14.43-9.04,5.69-1.44,11.57-1.06,16.99,1.09,2.51,1,5.36-.23,6.36-2.74,1-2.51-.23-5.36-2.74-6.36-7.35-2.92-15.3-3.43-23.01-1.48-7.7,1.95-14.46,6.18-19.54,12.24-1.74,2.07-1.47,5.16.61,6.9,1.25,1.05,2.88,1.37,4.35.99Z"/><path class="cls-1" d="m116.02,119.74c-28.58,0-67.99,1.73-67.99,1.73,0,63.72,44.69,63.72,67.99,63.72s67.99,0,67.99-63.72c0,0-39.41-1.73-67.99-1.73Z"/><path class="cls-4" d="m176,121.16c-.54,8.79-7.12,16.12-15.91,17.48-10.37,1.59-25.5,3.17-44.57,3.17s-34.2-1.59-44.56-3.17c-8.8-1.35-15.38-8.69-15.91-17.48,12.82-.5,39.55-1.42,60.47-1.42s47.66.92,60.48,1.42Z"/><path class="cls-3" d="m150.32,180.83c-12.16,4.36-25.27,4.36-34.79,4.36s-22.63,0-34.8-4.36c3.32-13.14,12.38-16.43,20.62-16.43,7.46,0,12.15,2.01,14.19,3.13,2.04-1.12,6.73-3.13,14.19-3.13,8.24,0,17.29,3.29,20.6,16.43Z"/><path class="cls-1" d="m53.38,81.43c-1.11,0-2.22-.37-3.13-1.14-2.08-1.73-2.36-4.82-.63-6.9,8.52-10.21,18.77-15.61,29.65-15.61s21.13,5.4,29.65,15.61c1.73,2.08,1.45,5.16-.62,6.9-2.08,1.73-5.16,1.45-6.89-.62-4.6-5.52-12.18-12.09-22.13-12.09s-17.53,6.58-22.13,12.09c-.97,1.16-2.36,1.76-3.76,1.76Z"/><path class="cls-1" d="m177.66,81.43c-1.4,0-2.79-.6-3.76-1.76-4.6-5.52-12.17-12.09-22.13-12.09s-17.53,6.58-22.13,12.09c-1.73,2.08-4.82,2.36-6.9.62-2.08-1.73-2.36-4.82-.62-6.9,8.52-10.21,18.77-15.61,29.65-15.61s21.13,5.4,29.65,15.61c1.73,2.08,1.45,5.16-.63,6.9-.91.76-2.03,1.14-3.13,1.14Z"/><path class="cls-2" d="m25.39,135.54c-5.81,5.81-15.23,5.81-21.03,0-5.81-5.81-5.81-15.23,0-21.03,5.81-5.81,33.74-12.7,33.74-12.7,0,0-6.9,27.93-12.7,33.74Z"/><path class="cls-2" d="m205.65,135.54c5.81,5.81,15.23,5.81,21.03,0,5.81-5.81,5.81-15.23,0-21.03-5.81-5.81-33.74-12.7-33.74-12.7,0,0,6.9,27.93,12.7,33.74Z"/></g></svg>